# xmcd
#
# Track frame offsets:
#  150
#  25026
#  49805
#  63680
#  76705
#  96130
#  116494
#  135084
#  173830
#
# Disc length: 2560 seconds
#
# Revision: 0
# Processed by: cddbd v1.5.2PL0 Copyright (c) Steve Scherf et al.
# Submitted via: AltoMP3_Maker 3.0
#
DISCID=6609fe09
DTITLE=Doc MacLean - Narrow House
DYEAR=1900
DGENRE=
TTITLE0=Can't Take the Delta
TTITLE1=Narrow House
TTITLE2=When Your Way Gets Dark
TTITLE3=Knoxville Cops
TTITLE4=Main Man on the Line
TTITLE5=Jinx Blues
TTITLE6=Hammer Blues
TTITLE7=Preachin' Blues
TTITLE8=Mercury Blues
EXTD=
EXTT0=
EXTT1=
EXTT2=
EXTT3=
EXTT4=
EXTT5=
EXTT6=
EXTT7=
EXTT8=
PLAYORDER=
